<svg id="Layer_1" data-name="Layer 1" xmlns="http://www.w3.org/2000/svg" viewBox="0 0 86.4 61.25"><defs><style>.cls-1,.cls-2,.cls-3{fill:none;}.cls-1,.cls-2,.cls-3,.cls-4{stroke:#6ed7b7;stroke-width:2.5px;}.cls-1,.cls-2{stroke-linejoin:round;}.cls-2{stroke-linecap:round;}.cls-3,.cls-4{stroke-miterlimit:10;}.cls-4{fill:#3a4654;}</style></defs><line class="cls-1" x1="21.93" y1="57.27" x2="49.02" y2="57.27"/><path class="cls-1" d="M55.08,48.64H9.4a8,8,0,0,1-8-8V9.75a8,8,0,0,1,8-8h52a8,8,0,0,1,8,8V21.56"/><path class="cls-1" d="M78.7,28.9a13.34,13.34,0,1,1-18.87,0A13.33,13.33,0,0,1,78.7,28.9Z"/><line class="cls-1" x1="78.75" y1="47.79" x2="86.37" y2="55.42"/><polyline class="cls-2" points="10.72 32.36 22.76 21.86 34.87 32.36"/><polyline class="cls-3" points="25.42 43.18 25.42 36.32 20.16 36.32 20.16 43.18"/><line class="cls-1" x1="14.16" y1="43.18" x2="14.16" y2="29.65"/><line class="cls-1" x1="31.42" y1="29.76" x2="31.42" y2="43.18"/><line class="cls-1" x1="6.91" y1="14.15" x2="62.31" y2="14.15"/><path class="cls-4" d="M11.5,8.48a.78.78,0,1,1-.78-.78A.78.78,0,0,1,11.5,8.48Z"/><circle class="cls-4" cx="18.17" cy="8.48" r="0.78"/><circle class="cls-4" cx="25.62" cy="8.48" r="0.78"/><line class="cls-1" x1="41.02" y1="21.98" x2="52.35" y2="21.98"/><line class="cls-1" x1="41.02" y1="28.52" x2="52.35" y2="28.52"/><line class="cls-1" x1="41.02" y1="35.06" x2="52.35" y2="35.06"/><line class="cls-1" x1="41.02" y1="41.6" x2="52.35" y2="41.6"/></svg>