<?xml version="1.0" encoding="utf-8"?>
<!-- Generator: Adobe Illustrator 25.2.3, SVG Export Plug-In . SVG Version: 6.00 Build 0)  -->
<svg version="1.1" id="Layer_1" xmlns="http://www.w3.org/2000/svg" xmlns:xlink="http://www.w3.org/1999/xlink" x="0px" y="0px"
	 viewBox="0 0 28.4 28.8" style="enable-background:new 0 0 28.4 28.8;" xml:space="preserve">
<style type="text/css">
	.st0{fill:#FFFFFF;}
	.st1{fill:none;stroke:#FFFFFF;stroke-width:2;stroke-linecap:round;stroke-linejoin:round;}
</style>
<g id="e8a9ebb0-5fc4-4f67-8ade-f9c5159ca997">
	<g id="b79315f8-6832-4741-9bd0-fffa49181c90">
		<path class="st0" d="M16,8.5c0.1-1-0.7-1.9-1.7-2c-0.1,0-0.2,0-0.3,0c-0.9,0-1.7,0.5-2.3,1.2l-0.9-0.9c0.9-1,2.1-1.6,3.5-1.7
			c1.7-0.2,3.2,1.1,3.4,2.8c0,0.1,0,0.3,0,0.4c0,2.7-3.2,3.7-2.9,6.5h-1.5C12.8,11.8,16,10.6,16,8.5z M12.8,17.9
			c0-0.7,0.6-1.2,1.2-1.1s1.2,0.6,1.1,1.2c0,0.6-0.5,1.1-1.2,1.1C13.3,19.2,12.8,18.6,12.8,17.9C12.8,17.9,12.8,17.9,12.8,17.9z"/>
	</g>
	<g id="ecd87422-37a3-4989-9985-d57f767706b6">
		<path class="st1" d="M25.8,22.5H13.3l-7.1,5.3v-5.3H2.6c-0.9,0-1.6-0.7-1.6-1.6c0,0,0,0,0,0V2.6C1,1.7,1.7,1,2.6,1h23.2
			c0.9,0,1.6,0.7,1.6,1.6v18.2C27.4,21.7,26.7,22.4,25.8,22.5z"/>
	</g>
</g>
</svg>
