<?xml version="1.0" encoding="utf-8"?>
<!-- Generator: Adobe Illustrator 26.3.1, SVG Export Plug-In . SVG Version: 6.00 Build 0)  -->
<svg version="1.1" id="Layer_1" xmlns="http://www.w3.org/2000/svg" xmlns:xlink="http://www.w3.org/1999/xlink" x="0px" y="0px"
	 viewBox="0 0 1003 447" style="enable-background:new 0 0 1003 447;" xml:space="preserve">
<style type="text/css">
	.st0{fill:#005B66;}
</style>
<path class="st0" d="M829,3.1c-6.1,0.6-14.5,2-17.4,2.8c-1.8,0.6-1.9,1.1-3.8,15.9c-4.7,36.6-1.8,77.9,7.8,110.8
	c1,3.8,2.1,7.4,2.2,8c1,3.8,7.1,19.9,10.2,26.4c5.3,11.4,11.9,23.8,16.2,30.1c4.6,7,9,12.8,10.8,14.8c1.1,1.2,3.2,3.5,4.5,5.2
	c1.4,1.6,3.8,4.3,5.6,6.1l3.2,3.1l-4-0.5c-2.2-0.3-9.1-1.6-15.4-2.9c-6.2-1.3-12.4-2.3-13.6-2.3c-1.7,0-3.8-1.6-9.4-7.5
	c-4.1-4.2-9-9.8-11.2-12.6c-2.1-2.8-4.3-5.4-4.9-5.7c-0.6-0.3-1-1-1-1.5c0-0.6-0.6-1.7-1.4-2.6c-5.5-6.3-19.2-31.4-23.6-43.4
	c-0.6-1.7-1.9-5-2.8-7.1c-1.6-3.9-4.1-11.8-7.4-23.2c-1.5-5.5-3.9-18.2-5.6-30c-1.9-13.8-1.6-58.1,0.5-63.6c0.6-1.4,0.1-1.2-3.4,0.7
	c-6.2,3.7-15.4,10.3-22.2,16.2l-6.3,5.4l0.5,18.8c0.4,19.8,2.2,34.6,5.4,47.7c1,3.5,1.8,7.3,2,8.3c0.2,1,1.3,4.1,2.3,6.7
	c1.1,2.6,2,5.4,2,6s0.5,2.2,1.1,3.6c0.6,1.4,3,6.7,5.3,11.8c6,13.3,13,24.7,23.6,38.8c3.8,5,17.8,19.3,23.4,23.8
	c2.8,2.2,4.9,4.2,4.7,4.3c-0.2,0.2-3.8-0.6-7.9-1.6c-6.2-1.6-8.8-2.7-13.1-5.8c-5-3.6-27.4-25.4-31-30.2c-0.9-1.2-2-2.6-2.5-3.2
	c-0.8-0.9-9.8-14.5-12.9-19.4c-1.9-3-7-12.8-7.8-15.2c-0.6-1.4-1.7-4-2.6-6c-6.2-13.4-11.4-35.4-12.9-55.2l-0.6-7.6L713,75
	c-10.2,15.8-18.4,38.1-21.6,58.9c-5.5,35.4,2.9,75,22.2,105.4l3,4.6h56.8h56.8v2.4v2.4l-55,0.2l-54.9,0.2l5,6.2
	c12.9,16,32.7,31.4,52.7,40.8c51.9,24.6,112.8,18.2,159.1-16.7c41-30.8,64.7-83.5,60.3-134.1c-4.3-51-31-94.2-74.4-120.7
	c-7.1-4.3-7.7-4.6-8.2-3C912,29.2,912,85.3,915,107c0.9,6.8,1.8,13.8,2,15.6c0.2,1.8,0.8,5.2,1.4,7.6c0.6,2.4,1.6,6.9,2.2,10
	c1.3,6.8,5.8,25,7.7,30.4c0.7,2.2,2.3,6.9,3.6,10.5c1.3,3.6,2.3,6.9,2.3,7.4c0,0.6,1,3.2,2.3,5.9c1.3,2.8,3.3,7.4,4.4,10.2
	c1.2,2.9,2.7,6.2,3.4,7.6c0.7,1.3,3,5.4,4.9,9.2c4.5,8.5,9,16,10.5,17.8c1.1,1.3,1,1.4-1.1,1c-1.3-0.2-9.1-1.1-17.5-2
	c-8.3-1-18.6-2.2-22.6-2.8c-4.1-0.6-8.5-1.2-9.8-1.2c-1.8,0-3-0.8-5-3.1c-3.8-4.4-13.7-19-16.7-24.6c-7.1-13.1-7.4-13.8-14.5-29.8
	c-2.1-4.7-6.2-16.6-7-20.1c-0.3-1.5-1.4-5-2.3-7.6c-1-2.6-1.8-5.7-2-6.8c-0.2-1.1-1-5.3-1.9-9.2c-1.9-8.3-4.6-23-5.8-31.6
	c-2.3-17.4-2.5-52.6-0.4-76c0.6-6.2,2.7-20.9,3.2-21.6C857.2,2.2,841.3,1.8,829,3.1z"/>
<path class="st0" d="M27.6,156.5c-9.4,2.9-15.1,8.5-19,18.2c-1.9,4.6-2,5.9-2.3,40.6c-0.3,38.8,0.1,43,4.5,52.5
	c4.2,9.2,14.6,15.4,25.6,15.5c8.6,0.1,13.3-1.6,19.1-7c2.8-2.6,5.2-4.3,5.5-4c0.2,0.3,1,2.8,1.8,5.2l1.6,4.6h4.7h4.7V251v-31.2H56.4
	H39.1v7.8v7.8H47h8l-0.4,8.8c-0.5,10-2.2,15.2-5.9,18.4c-5.4,4.4-13.4,3.6-18.5-2c-4.7-5.1-5.1-9.9-4.8-46c0.3-28.7,0.3-31,2-34.2
	c2.4-4.9,6.5-7.4,12.1-7.4c8.8,0,13.4,5.7,14.1,17.4l0.4,6.8H64h10l-0.6-7.2c-1.3-14.1-4.2-21-11.8-27.8
	C53.7,155.1,39.4,152.7,27.6,156.5z"/>
<path class="st0" d="M575.4,156.2c-6.9,1.9-12.5,5.8-16.4,11.6c-5.5,8.4-5.7,9.8-5.7,51.5c0,36.4,0.1,37.3,2,42.9
	c2.9,8.2,7.3,13.7,14,17.2c10.8,5.5,23.5,5.5,34.4,0.2c10.5-5.2,15.6-15.4,17.2-34.5l0.5-7.1h-9.9h-9.9l-0.4,7.1
	c-0.6,8.6-2.4,13.7-6.3,17.1c-4.2,3.6-8.9,4.2-14,1.6c-8.7-4.2-9.1-6.8-8.8-48.2c0.3-31.2,0.3-31.9,2.3-35.5
	c2.6-4.9,6.3-7.1,11.9-7.1c8.7,0,12.9,4.9,14.5,16.8l1,7.5h9.5h9.5l-0.5-7.2c-1-13.2-5.5-23.3-13.3-29.2
	C599.6,155.3,586.1,153.3,575.4,156.2z"/>
<path class="st0" d="M110.1,219.3v62.8h28.2h28.2v-9.1V264h-18.6h-18.6v-19.5V225h13.9h13.9v-8.7v-8.7h-13.9h-13.9v-16.5v-16.5h18.6
	h18.6v-9.1v-9.1h-28.2h-28.2V219.3z"/>
<path class="st0" d="M198.7,219.1l0.3,62.6l8.9,0.3l8.8,0.3v-41.8c0-23,0.3-41.6,0.5-41.3c0.3,0.3,8,19,17.1,41.5l16.7,41.1l8.4,0.3
	l8.4,0.3v-62.9v-62.8h-9.1h-9.1l-0.2,38.2l-0.3,38.2l-4.2-10.2c-2.3-5.7-9.3-22.9-15.5-38.3l-11.3-27.9h-9.9h-9.9L198.7,219.1z"/>
<path class="st0" d="M305.9,219.3v62.8h28.2h28.2v-9.1V264h-18.6H325l0.2-19.3l0.3-19.2l13.7-0.3l13.6-0.3v-8.6v-8.6l-13.6-0.3
	l-13.7-0.3l-0.3-16.3l-0.2-16.2h18.6h18.6v-9.1v-9.1h-28.2h-28.2V219.3z"/>
<path class="st0" d="M394.5,219.1l0.3,62.6l9.8,0.3l9.7,0.3v-26.1v-26.1l5.8,0.3l5.8,0.3l8.1,24.9c4.3,13.8,8.2,25.3,8.5,25.8
	c0.8,1.3,19.5,1.1,19.5-0.2c0-0.5-3.9-13-8.7-27.7c-8.6-26.7-9.4-29.3-8-29.3c1.4,0,8.1-6.3,10-9.4c3-4.9,4.9-11.2,5.5-18.7
	c1.2-17.7-6.2-31.7-19.6-37c-4.4-1.7-6.7-1.9-25.9-2.3l-21-0.3L394.5,219.1z M433.3,176.3c1.7,1,4,3.3,5.2,5.5
	c1.8,3.3,2.2,4.9,2.2,11.6c0,6.7-0.3,8.3-2.2,11.6c-3.1,5.5-5.9,6.8-15.9,7.5l-8.4,0.6v-19.2v-19.1h8.1
	C428.4,174.7,431,175.1,433.3,176.3z"/>
<path class="st0" d="M496.5,219.3v62.8h9.5h9.5v-62.8v-62.8h-9.5h-9.5V219.3z"/>
<path class="st0" d="M358.1,337.5c-8,1.6-15,7.6-18.2,15.5c-1.6,4.1-1.6,5.2-1.9,32.2c-0.1,18,0,29.8,0.6,33.2
	c2.4,15.6,12.8,23.8,28.9,23c5.3-0.3,7-0.7,11.3-2.9c9-4.6,13.4-12.9,14.2-27.1l0.4-7.3h-7.9h-7.9l-0.6,6.1
	c-1,11.4-4.6,16.3-12,16.3c-4.5,0-8-2.1-9.8-5.8c-1.3-2.5-1.4-5.2-1.6-30.7l-0.2-27.9l1.8-4c2.3-4.9,5.6-6.8,11.2-6.2
	c6.4,0.6,10.3,6.2,10.3,15.3v4h7.9h8l-0.4-6.6c-0.7-11.2-4.9-19.3-12.4-23.8C373.9,337.2,365.9,336,358.1,337.5z"/>
<path class="st0" d="M585,337.8c-12,3.4-17.4,10.9-18.7,26.2c-0.9,9.6-0.9,39.8-0.1,49.4c1.3,14,4.9,20.7,13.9,25.3
	c5,2.5,5.5,2.6,13.5,2.6c10.1,0,14.3-1.6,19.6-7.2c5.4-5.7,7.7-12.6,8-23.5l0.2-6h-7.9h-7.9l-0.4,6.4c-0.7,10.9-4.2,15.7-11.4,15.7
	c-5.2,0-8.4-2-10.5-6.6c-1.6-3.4-1.6-4.3-1.6-31.2c0-27.4,0-27.7,1.7-30.9c2.2-4,5.5-6.1,9.9-6.1c6.9,0,11,4.9,11.8,14.3l0.4,5.2
	h7.7h7.8v-4c0-10-4.9-21.3-11.1-25.6C603.6,337.3,592.9,335.7,585,337.8z"/>
<path class="st0" d="M166.9,389.2v51h23.2h23.2V433v-7.1l-15.1-0.1l-15.2-0.2l-0.2-15.6l-0.1-15.5h11.2h11.2v-7.5v-7.5h-11.2h-11.2
	v-13.1v-13.1H198h15.4v-7.5v-7.5h-23.2h-23.2V389.2z"/>
<path class="st0" d="M223.9,389.2v51h23.6h23.6V433v-7.1l-15.5-0.1l-15.6-0.2l-0.2-43.7l-0.1-43.6h-7.9h-7.9V389.2z"/>
<path class="st0" d="M280.8,389.2v51H304h23.2V433v-7.1h-15.4h-15.4v-15.7v-15.7h11.2H319v-7.5v-7.5h-11.2h-11.2v-13.1v-13.1
	l15.2-0.1l15.1-0.2l0.2-7.3l0.2-7.3H304h-23.2V389.2z"/>
<path class="st0" d="M401.6,345.5l0.2,7.3l10,0.2l9.9,0.2v43.4v43.5h7.9h7.9v-43.5v-43.5h9.7h9.7v-7.5v-7.5h-27.7h-27.8L401.6,345.5
	z"/>
<path class="st0" d="M468.1,389.1v51h7.9h7.9v-21v-21h4.5c3.4,0,4.6,0.3,5.1,1.3c0.4,0.7,3.4,10.2,6.9,21.1l6.3,19.6h8.1
	c4.4,0,8.1-0.1,8.1-0.2s-3.2-10.2-7.1-22.3s-7.1-22.4-7.1-22.9c0-0.5,0.7-1.3,1.7-1.9c8.5-5.6,13-18.1,11.2-30.7
	c-1.6-10.7-7.1-18.3-15.8-21.7c-3.7-1.4-6-1.6-20.8-1.9l-16.7-0.3V389.1z M501.5,356.3c3.2,3.4,4.4,7.9,3.9,14.2
	c-0.5,5.8-1.9,8.8-5.1,11.2c-1.9,1.3-3.7,1.7-9.4,2l-7,0.4v-15.6V353l7.6,0.3l7.6,0.2L501.5,356.3z"/>
<path class="st0" d="M535.6,389.2v51h7.9h7.9v-51v-51h-7.9h-7.9V389.2z"/>
<path class="st0" d="M649.9,339.9c-0.1,1-4.4,22.9-9.4,48.9c-4.9,25.9-9.2,48.2-9.4,49.3l-0.4,2.1l7.7-0.2l7.8-0.2l1.9-10.5
	l1.9-10.5l10.9-0.2l10.9-0.2l0.8,4c0.5,2.2,1.4,7,2.1,10.9l1.3,7h8.2c7.4,0,8.2-0.1,7.9-1.3c-0.2-0.7-4.9-23.7-10.4-51l-10-49.6
	h-10.6C650.5,338.2,650.2,338.2,649.9,339.9z M665.1,381.1c2.1,11.4,3.8,21.1,3.8,21.5c0,0.5-2.9,0.8-8.2,0.8c-8.2,0-8.2,0-7.9-1.7
	c0.2-0.9,1.9-10.3,3.7-20.8c3.5-19.6,4.2-22.6,4.6-21.4C661.3,359.9,663.1,369.7,665.1,381.1z"/>
<path class="st0" d="M703.4,389.2v51l9.4-0.1H736v-7.1v-7.1h-15.4l-1.5,0.1V382v-43.8h-7.9h-7.9V389.2z"/>
</svg>
