<svg id="Layer_1" data-name="Layer 1" xmlns="http://www.w3.org/2000/svg" viewBox="0 0 66.7 65.49"><defs><style>.cls-1{fill:none;stroke:#6ed7b7;stroke-miterlimit:10;stroke-width:2.5px;}</style></defs><path class="cls-1" d="M63.36,45.86A7.59,7.59,0,0,0,56,38.07h-.56a7.58,7.58,0,0,0-7.94,7.22c0,.18,0,.37,0,.56,0,5.5,4.54,12.65,8,16.06C58.82,58.51,63.36,52.27,63.36,45.86Z"/><path class="cls-1" d="M63.36,34.15a11.94,11.94,0,0,0-5.81-10.26,9.26,9.26,0,0,0-9.66-12.25A15.89,15.89,0,0,0,17,16.89,14.61,14.61,0,0,0,17,46.1"/><circle class="cls-1" cx="55.42" cy="46.03" r="2.65"/><line class="cls-1" x1="24.96" y1="42.05" x2="19.66" y2="53.97"/><line class="cls-1" x1="32.9" y1="42.05" x2="27.6" y2="53.97"/><line class="cls-1" x1="40.85" y1="42.05" x2="35.55" y2="53.97"/></svg>