<svg id="Layer_1" data-name="Layer 1" xmlns="http://www.w3.org/2000/svg" viewBox="0 0 56.4 68.82"><defs><style>.cls-1{fill:none;stroke:#6ed7b7;stroke-linejoin:round;stroke-width:2.5px;}</style></defs><path class="cls-1" d="M4.22,30.36V5.85A3.38,3.38,0,0,1,7.59,2.48h9.9"/><path class="cls-1" d="M42.48,55.07c-2.8,0-5.08-1.15-5.08-2.56S39.68,50,42.48,50c2.38,0,4.38.82,4.93,1.94"/><path class="cls-1" d="M42.48,55.08c2.8,0,5.08,1.14,5.08,2.56s-2.28,2.56-5.08,2.56c-2.51,0-4.59-.92-5-2.12"/><line class="cls-1" x1="42.55" y1="47.09" x2="42.55" y2="63.09"/><path class="cls-1" d="M40.68,17.55V5.84a3.38,3.38,0,0,0-3.37-3.36H13.62l-.17.14"/><path class="cls-1" d="M4.23,10.63V47.72a3.37,3.37,0,0,0,3.36,3.36h8.73"/><line class="cls-1" x1="25.43" y1="34.56" x2="44.77" y2="34.56"/><line class="cls-1" x1="25.43" y1="41.69" x2="44.77" y2="41.69"/><line class="cls-1" x1="12.32" y1="10.49" x2="31.67" y2="10.49"/><line class="cls-1" x1="12.32" y1="17.63" x2="31.67" y2="17.63"/><line class="cls-1" x1="12.32" y1="24.93" x2="17.83" y2="24.93"/><path class="cls-1" d="M50,17.62H26.27l-9.4,8.15V62.86a3.38,3.38,0,0,0,3.37,3.36H50a3.38,3.38,0,0,0,3.37-3.36V21A3.38,3.38,0,0,0,50,17.62Z"/><polyline class="cls-1" points="29.31 18.27 29.31 28.63 22.98 28.63"/></svg>