<?xml version="1.0" encoding="iso-8859-1"?>
<!-- Generator: Adobe Illustrator 19.1.0, SVG Export Plug-In . SVG Version: 6.00 Build 0)  -->
<svg version="1.1" id="Layer_1" xmlns="http://www.w3.org/2000/svg" xmlns:xlink="http://www.w3.org/1999/xlink" x="0px" y="0px"
	 viewBox="-561 334 100 125" style="enable-background:new -561 334 100 125;" xml:space="preserve">
<title>lightbulb_double_shine</title>
<path style="fill:#F2000C;" d="M-480.8,366.7l9.6-5.5c1.2-0.6,2.6-0.1,3.2,1.1c0.5,1.1,0.2,2.4-0.8,3.1l-9.6,5.5
	c-1.2,0.6-2.6,0.1-3.2-1.1C-482.1,368.7-481.8,367.3-480.8,366.7z"/>
<path style="fill:#F2000C;" d="M-491.2,357.2c-1.3,0-2.4-1-2.4-2.4c0-0.5,0.1-1,0.4-1.4l6.2-9.1c0.7-1.1,2.2-1.4,3.3-0.7
	c1.1,0.7,1.4,2.2,0.7,3.3l-6.2,9.1C-489.7,356.8-490.4,357.2-491.2,357.2z"/>
<path style="fill:#F2000C;" d="M-538.4,343.7c1.1-0.7,2.6-0.5,3.3,0.6l6.2,9.1c0.8,1,0.6,2.5-0.4,3.4c-1,0.8-2.5,0.6-3.4-0.4
	c-0.1-0.1-0.1-0.2-0.2-0.2l-6.1-9.2C-539.7,345.9-539.5,344.4-538.4,343.7z"/>
<path style="fill:#F2000C;" d="M-542.5,371.1c-0.4,0-0.8-0.1-1.2-0.3l-9.6-5.5c-1.1-0.7-1.4-2.2-0.7-3.3c0.7-1,2-1.4,3.1-0.8
	l9.6,5.5c1.1,0.7,1.5,2.1,0.8,3.3C-540.9,370.7-541.7,371.1-542.5,371.1L-542.5,371.1z"/>
<path style="fill:#F2000C;" d="M-511.1,350.8c-1.3,0-2.4-1.1-2.4-2.4v-11c-0.1-1.3,0.9-2.5,2.2-2.5s2.5,0.9,2.5,2.2
	c0,0.1,0,0.2,0,0.3v11C-508.7,349.7-509.8,350.8-511.1,350.8z"/>
<path style="fill:#F2000C;" d="M-520.6,414.8h19c1.3-0.1,2.5,0.9,2.5,2.2c0.1,1.3-0.9,2.5-2.2,2.5c-0.1,0-0.2,0-0.3,0h-19
	c-1.3,0.1-2.5-0.9-2.5-2.2c-0.1-1.3,0.9-2.5,2.2-2.5C-520.8,414.8-520.7,414.8-520.6,414.8z"/>
<path style="fill:#F2000C;" d="M-506.8,429v1.2c0,1.5-1.2,2.7-2.7,2.7l0,0h-3.9c-1.5,0-2.7-1.2-2.7-2.7V429c-2.9-0.4-5-2.9-5-5.8
	h19.8C-501.2,426.3-503.6,428.9-506.8,429z"/>
<path style="fill:#F2000C;" d="M-535.1,385.3c0,3.2,0.6,6.3,1.8,9.2c0.1,0.4,0.3,0.7,0.5,1.1c1,2.3,2.4,4.4,4.1,6.3l6.1,9.4h23.1
	l6.1-9.4c1.7-1.9,3.1-4,4.1-6.3c0.2-0.4,0.3-0.7,0.4-1.1c1.2-2.9,1.8-6.1,1.8-9.2c0-13.6-10.7-24.6-24-24.6
	S-535.1,371.7-535.1,385.3z M-520.2,366.1c1.5-0.9,3.2-1.7,4.9-2.3c1-0.3,2,0.2,2.4,1.1c0.3,0.9-0.2,1.9-1.1,2.2h-0.1
	c-1.4,0.5-2.8,1.2-4.2,2c-0.3,0.2-0.6,0.3-1,0.3c-0.6,0-1.2-0.3-1.6-0.8c-0.5-0.8-0.3-1.9,0.4-2.4
	C-520.3,366.2-520.2,366.2-520.2,366.1z M-532,384c0.2-5.3,2.5-10.3,6.5-13.8c0.7-0.7,1.9-0.7,2.6,0c0.7,0.6,0.7,1.7,0.1,2.4
	l-0.1,0.1c-3.3,2.9-5.2,7.1-5.4,11.5c-0.1,1-0.9,1.7-1.9,1.7h-0.1C-531.2,385.8-532,385-532,384z"/>
</svg>
