<svg id="Layer_1" data-name="Layer 1" xmlns="http://www.w3.org/2000/svg" viewBox="0 0 91.25 62.16"><defs><style>.cls-1,.cls-2,.cls-3,.cls-4{fill:none;stroke:#6ed7b7;stroke-width:2.5px;}.cls-1,.cls-3{stroke-linecap:round;}.cls-1,.cls-2{stroke-miterlimit:10;}.cls-3,.cls-4{stroke-linejoin:round;}</style></defs><line class="cls-1" x1="40.09" y1="50.06" x2="50.63" y2="39.52"/><line class="cls-1" x1="47.59" y1="50.07" x2="52.35" y2="45.34"/><line class="cls-2" x1="6.95" y1="59.49" x2="6.95" y2="31.19"/><line class="cls-2" x1="59.03" y1="46.78" x2="59.03" y2="59.49"/><line class="cls-2" x1="23.35" y1="31.19" x2="23.35" y2="59.41"/><line class="cls-1" x1="17.7" y1="40.34" x2="17.7" y2="44.16"/><line class="cls-3" x1="48.37" y1="15.92" x2="10" y2="15.92"/><path class="cls-3" d="M56.66,5.72,55.28,3.3H10.85L3.52,16v5.11a5.86,5.86,0,1,0,11.72,0,5.87,5.87,0,1,0,11.73,0,5.9,5.9,0,1,0,11.79,0,5.91,5.91,0,0,0,7.09,5.78"/><line class="cls-3" x1="27.8" y1="10.48" x2="28.25" y2="3.41"/><line class="cls-3" x1="17.51" y1="10.48" x2="19.18" y2="3.41"/><line class="cls-3" x1="37.93" y1="10.48" x2="37.49" y2="3.41"/><line class="cls-3" x1="48.23" y1="10.48" x2="46.56" y2="3.41"/><line class="cls-3" x1="1.76" y1="59.49" x2="64.23" y2="59.49"/><path class="cls-2" d="M70.25,25.74c-4.3,0-7.79-1.76-7.79-3.93s3.49-3.93,7.79-3.93c3.65,0,6.71,1.27,7.56,3"/><path class="cls-2" d="M70.25,25.75c4.3,0,7.79,1.76,7.79,3.93s-3.49,3.93-7.79,3.93c-3.85,0-7-1.41-7.68-3.26"/><line class="cls-2" x1="70.36" y1="13.49" x2="70.36" y2="38.05"/><path class="cls-4" d="M88.67,25.77A18.42,18.42,0,1,1,70.24,7.36,18.43,18.43,0,0,1,88.67,25.77Z"/></svg>