<svg id="Layer_1" data-name="Layer 1" xmlns="http://www.w3.org/2000/svg" viewBox="0 0 85.19 61.85"><defs><style>.cls-1,.cls-2{fill:none;stroke:#6ed7b7;stroke-width:2.5px;}.cls-1{stroke-linejoin:round;}.cls-2{stroke-miterlimit:10;}</style></defs><polyline class="cls-1" points="41.36 17.35 34.93 11.87 34.91 11.87 12.22 32.19 12.22 58.14 29.05 58.14 29.05 43.38 40.79 43.38 40.79 58.14 57.63 58.14 57.63 48.07"/><polyline class="cls-2" points="2.21 30.5 12.41 21.56 12.41 6.83 19.51 6.83 19.51 15.38 34.83 2.02 44.95 10.59"/><path class="cls-2" d="M63.84,25.16c-4.3,0-7.79-1.76-7.79-3.93s3.49-3.93,7.79-3.93c3.65,0,6.72,1.26,7.57,3"/><path class="cls-2" d="M63.84,25.17c4.31,0,7.8,1.75,7.8,3.92S68.15,33,63.84,33c-3.84,0-7-1.4-7.67-3.25"/><line class="cls-2" x1="63.95" y1="12.91" x2="63.95" y2="37.46"/><path class="cls-1" d="M82.27,25.19A18.43,18.43,0,1,1,63.84,6.77,18.42,18.42,0,0,1,82.27,25.19Z"/></svg>